<svg width="720" height="82" viewBox="0 0 720 82" fill="none" xmlns="http://www.w3.org/2000/svg" role="img" aria-labelledby="title desc">
  <title id="title">Pixel skyline</title>
  <desc id="desc">A tiny pixel-art strip with stars, blocks, and a small moon.</desc>
  <rect width="720" height="82" rx="8" fill="#101522"/>
  <rect x="0" y="58" width="720" height="24" fill="#172033"/>
  <rect x="24" y="50" width="32" height="32" fill="#2DD4BF"/>
  <rect x="64" y="42" width="24" height="40" fill="#38BDF8"/>
  <rect x="96" y="34" width="40" height="48" fill="#FACC15"/>
  <rect x="144" y="46" width="16" height="36" fill="#FB7185"/>
  <rect x="176" y="26" width="48" height="56" fill="#A78BFA"/>
  <rect x="232" y="50" width="32" height="32" fill="#34D399"/>
  <rect x="296" y="38" width="24" height="44" fill="#F97316"/>
  <rect x="336" y="30" width="56" height="52" fill="#60A5FA"/>
  <rect x="416" y="46" width="32" height="36" fill="#F472B6"/>
  <rect x="464" y="22" width="24" height="60" fill="#22C55E"/>
  <rect x="504" y="42" width="56" height="40" fill="#EAB308"/>
  <rect x="584" y="34" width="32" height="48" fill="#06B6D4"/>
  <rect x="632" y="50" width="64" height="32" fill="#818CF8"/>
  <rect x="36" y="58" width="8" height="8" fill="#101522"/>
  <rect x="72" y="50" width="8" height="8" fill="#101522"/>
  <rect x="112" y="42" width="8" height="8" fill="#101522"/>
  <rect x="192" y="34" width="8" height="8" fill="#101522"/>
  <rect x="352" y="38" width="8" height="8" fill="#101522"/>
  <rect x="432" y="54" width="8" height="8" fill="#101522"/>
  <rect x="520" y="50" width="8" height="8" fill="#101522"/>
  <rect x="648" y="58" width="8" height="8" fill="#101522"/>
  <rect x="92" y="14" width="6" height="6" fill="#F8FAFC"/>
  <rect x="174" y="12" width="4" height="4" fill="#CBD5E1"/>
  <rect x="274" y="18" width="6" height="6" fill="#F8FAFC"/>
  <rect x="404" y="12" width="4" height="4" fill="#CBD5E1"/>
  <rect x="596" y="16" width="6" height="6" fill="#F8FAFC"/>
  <rect x="644" y="10" width="4" height="4" fill="#CBD5E1"/>
  <rect x="676" y="18" width="18" height="18" fill="#FDE68A"/>
  <rect x="670" y="18" width="10" height="18" fill="#101522"/>
</svg>
